<mxfile host="app.diagrams.net" modified="2023-08-09T12:17:46.600Z" agent="Mozilla/5.0 (Macintosh; Intel Mac OS X 10_15_7) AppleWebKit/537.36 (KHTML, like Gecko) Chrome/115.0.0.0 Safari/537.36" version="21.6.7" etag="CulWMK13la_XtYqoFRRL" type="github">
  <diagram name="第 1 页" id="QPgDhYlQmTXN2JfHUKUh">
    <mxGraphModel>
      <root>
        <mxCell id="0" />
        <mxCell id="1" parent="0" />
      </root>
    </mxGraphModel>
  </diagram>
</mxfile>
